<?xml version="1.0" standalone="no"?>
<!DOCTYPE svg PUBLIC "-//W3C//DTD SVG 20010904//EN"
 "http://www.w3.org/TR/2001/REC-SVG-20010904/DTD/svg10.dtd">
<svg version="1.0" xmlns="http://www.w3.org/2000/svg"
 width="1601.000000pt" height="1601.000000pt" viewBox="0 0 1601.000000 1601.000000"
 preserveAspectRatio="xMidYMid meet">
<metadata>
Created by potrace 1.11, written by Peter Selinger 2001-2013
</metadata>
<g transform="translate(0.000000,1601.000000) scale(0.100000,-0.100000)"
fill="#000000" stroke="none">
<path d="M7 16003 c-4 -3 -7 -3606 -7 -8005 l0 -7998 8005 0 8005 0 0 8005 0
8005 -7998 0 c-4399 0 -8002 -3 -8005 -7z m11035 -2963 c172 -11 320 -32 473
-66 114 -25 335 -91 335 -100 0 -11 -453 -1330 -459 -1337 -4 -4 -34 2 -67 13
-137 47 -249 64 -444 64 -204 1 -288 -11 -460 -66 -227 -72 -407 -184 -585
-362 -183 -184 -288 -351 -365 -585 -132 -400 -84 -848 129 -1206 109 -183
248 -335 421 -460 88 -63 260 -154 342 -180 29 -10 57 -21 61 -25 6 -5 -372
-1133 -444 -1327 l-8 -23 -93 34 c-974 353 -1697 1221 -1867 2241 -161 963
161 1926 866 2596 487 463 1135 746 1806 788 176 12 197 12 359 1z m-5152
-4141 c412 -38 830 -178 1176 -395 324 -203 643 -521 849 -849 150 -238 294
-595 349 -865 41 -201 46 -265 56 -660 12 -503 36 -669 125 -883 88 -208 209
-360 421 -528 l152 -122 -123 -361 c-262 -771 -338 -991 -341 -995 -6 -7 -241
122 -339 186 -55 36 -145 100 -200 142 -126 95 -409 376 -505 501 -336 436
-544 940 -605 1465 -8 72 -19 261 -25 420 -12 329 -29 498 -64 636 -61 241
-154 399 -333 569 -259 245 -652 362 -1026 305 -452 -68 -836 -391 -981 -825
-47 -141 -66 -258 -66 -408 0 -310 90 -596 267 -846 32 -44 117 -140 188 -212
136 -137 273 -245 447 -354 122 -76 405 -222 537 -276 51 -22 95 -44 97 -49 4
-11 -439 -1311 -450 -1323 -3 -3 -99 32 -213 78 -1240 494 -1905 1108 -2177
2010 -80 266 -115 518 -123 870 -7 361 16 562 101 858 144 498 448 961 856
1304 217 182 557 375 825 468 360 125 755 174 1125 139z m5133 -370 c310 -139
614 -355 872 -620 460 -473 735 -1055 811 -1719 20 -174 15 -555 -10 -716
-107 -709 -431 -1314 -955 -1781 -376 -336 -860 -578 -1351 -676 -228 -46
-300 -52 -595 -51 -238 0 -301 3 -422 22 -146 23 -410 85 -425 100 -7 7 435
1318 451 1335 4 4 52 -3 107 -15 143 -32 444 -32 587 0 306 68 541 195 757
412 215 214 348 457 412 753 19 85 22 134 22 297 1 213 -9 280 -66 460 -120
378 -417 719 -774 887 l-81 38 226 660 c125 363 230 668 233 678 9 20 19 17
201 -64z"/>
</g>
</svg>
