<?xml version="1.0" encoding="UTF-8" standalone="no"?>
<!-- Created with Inkscape (http://www.inkscape.org/) -->
<svg xmlns:dc="http://purl.org/dc/elements/1.1/" xmlns:cc="http://creativecommons.org/ns#" xmlns:rdf="http://www.w3.org/1999/02/22-rdf-syntax-ns#" xmlns:svg="http://www.w3.org/2000/svg" xmlns="http://www.w3.org/2000/svg" xmlns:sodipodi="http://sodipodi.sourceforge.net/DTD/sodipodi-0.dtd" xmlns:inkscape="http://www.inkscape.org/namespaces/inkscape" id="svg2" version="1.1" inkscape:version="0.48.2 r9819" width="1123.2288" height="814.96625" xml:space="preserve" sodipodi:docname="Logo_CodeursEnSeine.svg" inkscape:export-filename="logo_codeursenseine.png" inkscape:export-xdpi="292.62772" inkscape:export-ydpi="292.62772"><metadata id="metadata8"><rdf:RDF><cc:Work rdf:about=""><dc:format>image/svg+xml</dc:format><dc:type rdf:resource="http://purl.org/dc/dcmitype/StillImage"/><dc:title/></cc:Work></rdf:RDF></metadata><defs id="defs6"><clipPath clipPathUnits="userSpaceOnUse" id="clipPath18"><path d="m 0,651.973 898.583,0 L 898.583,0 0,0 0,651.973 z" id="path20"/></clipPath></defs><sodipodi:namedview pagecolor="#ffffff" bordercolor="#666666" borderopacity="1" objecttolerance="10" gridtolerance="10" guidetolerance="10" inkscape:pageopacity="0" inkscape:pageshadow="2" inkscape:window-width="1440" inkscape:window-height="852" id="namedview4" showgrid="false" inkscape:zoom="0.85893128" inkscape:cx="561.61438" inkscape:cy="370.85949" inkscape:window-x="0" inkscape:window-y="0" inkscape:window-maximized="1" inkscape:current-layer="g10"/><g id="g10" inkscape:groupmode="layer" inkscape:label="Logo_CodeursEnSeine" transform="matrix(1.25,0,0,-1.25,0,814.96625)"><g id="g3016" transform="matrix(4.3405179,0,0,4.3405179,-1163.8776,-1509.2452)"><g style="fill:#5e5e60;fill-opacity:1" transform="matrix(0.84436852,0,0,0.84349674,366.48955,456.6898)" id="g4296"><path inkscape:connector-curvature="0" id="path4298" style="fill:#5e5e60;fill-opacity:1;fill-rule:nonzero;stroke:none" d="m 0,0 c -3.12,0 -5.437,-1.383 -6.949,-4.144 -1.516,-2.762 -2.272,-6.974 -2.272,-12.635 0,-10.474 3.099,-15.712 9.299,-15.712 1.23,0 2.341,0.287 3.332,0.86 l 0,3.918 c -0.952,-0.438 -1.765,-0.655 -2.438,-0.655 -3.875,0 -5.81,3.911 -5.81,11.732 0,2.174 0.108,4.059 0.327,5.652 0.217,1.593 0.554,2.909 1.009,3.948 0.458,1.039 1.036,1.808 1.736,2.307 0.702,0.499 1.54,0.75 2.519,0.75 0.714,0 1.598,-0.267 2.657,-0.801 l 0,3.836 C 2.285,-0.315 1.149,0 0,0"/></g><g transform="matrix(1.0600633,-0.34928673,0.35606883,1.0806466,329.19276,377.59367)" id="g4300"><path inkscape:connector-curvature="0" id="path4302" style="fill:#c7c8ca;fill-opacity:1;fill-rule:nonzero;stroke:none" d="m 0,0 c 7.921,0.222 13.964,2.609 18.127,7.165 4.163,4.556 6.245,10.06 6.245,16.511 0,0.297 -0.053,0.534 -0.089,0.789 0.036,0.254 0.089,0.49 0.089,0.787 0,6.451 -2.082,11.954 -6.245,16.511 C 13.964,46.317 7.921,48.706 0,48.929 L 0,36.781 c 4.481,-0.223 7.668,-1.849 9.557,-4.878 1.234,-1.999 1.852,-4.479 1.865,-7.438 C 11.409,21.505 10.791,19.022 9.557,17.024 7.668,13.997 4.481,12.37 0,12.146 L 0,0 z"/></g><g transform="matrix(1.0563451,-0.36037562,0.36737302,1.0768561,338.79488,418.31737)" id="g4304"><path inkscape:connector-curvature="0" id="path4306" style="fill:#5e5e60;fill-opacity:1;fill-rule:nonzero;stroke:none" d="m 0,0 c -7.921,0.223 -13.965,2.609 -18.128,7.167 -4.163,4.554 -6.244,10.059 -6.244,16.511 0,0.296 0.052,0.532 0.089,0.787 -0.037,0.254 -0.089,0.492 -0.089,0.787 0,6.453 2.081,11.955 6.244,16.512 4.163,4.554 10.207,6.942 18.128,7.165 L 0,36.783 c -4.482,-0.223 -7.669,-1.851 -9.557,-4.88 -1.234,-1.999 -1.852,-4.479 -1.866,-7.438 0.014,-2.959 0.632,-5.442 1.866,-7.44 C -7.669,13.997 -4.482,12.37 0,12.146 L 0,0 z"/></g><g style="fill:#5e5e60;fill-opacity:1" transform="matrix(0.84436852,0,0,0.84349674,410.61279,429.6122)" id="g4312"><path inkscape:connector-curvature="0" id="path4314" style="fill:#5e5e60;fill-opacity:1;fill-rule:nonzero;stroke:none" d="m 0,0 10.965,0 0,3.609 -6.841,0 0,10.811 6.066,0 0,3.609 -6.066,0 0,10.032 6.841,0 0,3.609 L 0,31.67 0,0 z"/></g><g style="fill:#5e5e60;fill-opacity:1" transform="matrix(0.84436852,0,0,0.84349674,392.60148,429.6122)" id="g4316"><path inkscape:connector-curvature="0" id="path4318" style="fill:#5e5e60;fill-opacity:1;fill-rule:nonzero;stroke:none" d="m 0,0 3.331,0 c 3.858,0 6.536,0.69 8.029,2.071 1.216,1.11 2.089,2.715 2.618,4.822 0.542,2.201 0.813,5.045 0.813,8.532 0,3.801 -0.246,6.722 -0.734,8.758 -0.49,2.106 -1.308,3.815 -2.459,5.13 C 10.832,30.187 9.96,30.796 8.98,31.138 7.924,31.492 6.622,31.67 5.076,31.67 L 0,31.67 0,0 z m 4.124,28.081 0.516,0 c 2.219,0 3.747,-0.917 4.579,-2.749 0.834,-1.832 1.25,-5.189 1.25,-10.071 0,-4.54 -0.438,-7.597 -1.308,-9.169 C 8.313,4.52 6.635,3.732 4.124,3.732 l 0,24.349 z"/></g><g style="fill:#5e5e60;fill-opacity:1" transform="matrix(0.84436852,0,0,0.84349674,425.12538,437.44997)" id="g4320"><path inkscape:connector-curvature="0" id="path4322" style="fill:#5e5e60;fill-opacity:1;fill-rule:nonzero;stroke:none" d="m 0,0 c 0,-3.46 0.39,-5.799 1.17,-7.016 1.125,-1.777 3.059,-2.666 5.81,-2.666 2.497,0 4.355,0.691 5.571,2.072 1.017,1.215 1.527,3.548 1.527,6.994 l 0,22.994 -4.046,0 0,-22.994 c 0,-2.052 -0.198,-3.411 -0.594,-4.081 C 9.055,-5.354 8.261,-5.683 7.06,-5.683 5.854,-5.683 5.048,-5.307 4.641,-4.555 4.243,-3.802 4.044,-2.284 4.044,0 l 0,22.378 L 0,22.378 0,0 z"/></g><g style="fill:#5e5e60;fill-opacity:1" transform="matrix(0.84436852,0,0,0.84349674,443.05334,429.6122)" id="g4324"><path inkscape:connector-curvature="0" id="path4326" style="fill:#5e5e60;fill-opacity:1;fill-rule:nonzero;stroke:none" d="m 0,0 4.124,0 0,15.506 L 9.736,0 13.92,0 8.287,15.404 c 1.362,0.329 2.408,1.18 3.144,2.554 0.733,1.374 1.1,3.196 1.1,5.467 0,2.953 -0.694,5.148 -2.083,6.583 C 9.352,31.116 7.681,31.67 5.435,31.67 L 0,31.67 0,0 z m 4.124,28.163 0.693,0 c 0.649,0 1.207,-0.102 1.676,-0.308 0.469,-0.205 0.853,-0.528 1.151,-0.963 0.298,-0.438 0.515,-1.005 0.654,-1.704 0.139,-0.697 0.209,-1.539 0.209,-2.522 0,-1.82 -0.332,-3.111 -0.993,-3.878 C 6.854,18.023 5.725,17.64 4.124,17.64 l 0,10.523 z"/></g><g style="fill:#5e5e60;fill-opacity:1" transform="matrix(0.84436852,0,0,0.84349674,464.63092,456.6898)" id="g4328"><path inkscape:connector-curvature="0" id="path4330" style="fill:#5e5e60;fill-opacity:1;fill-rule:nonzero;stroke:none" d="m 0,0 c -2.116,0 -3.8,-0.732 -5.056,-2.194 -1.242,-1.451 -1.864,-3.413 -1.864,-5.888 0,-1.833 0.318,-3.352 0.952,-4.553 0.329,-0.616 0.84,-1.334 1.528,-2.155 0.686,-0.82 1.552,-1.764 2.596,-2.83 0.675,-0.697 1.237,-1.33 1.687,-1.898 0.447,-0.567 0.799,-1.069 1.049,-1.507 0.488,-0.916 0.734,-1.95 0.734,-3.098 0,-1.325 -0.318,-2.375 -0.951,-3.148 -0.635,-0.773 -1.515,-1.16 -2.638,-1.16 -1.204,0 -2.538,0.554 -4.005,1.661 l 0,-4.225 c 1.242,-0.996 2.743,-1.496 4.5,-1.496 2.09,0 3.8,0.773 5.137,2.317 1.335,1.587 2.001,3.604 2.001,6.051 0,1.806 -0.304,3.329 -0.911,4.575 -0.61,1.285 -1.752,2.81 -3.431,4.574 -0.911,0.944 -1.655,1.75 -2.23,2.42 -0.575,0.669 -0.989,1.217 -1.239,1.641 -0.49,0.794 -0.733,1.744 -0.733,2.851 0,1.258 0.343,2.263 1.03,3.016 0.688,0.792 1.574,1.19 2.657,1.19 1.004,0 2.133,-0.465 3.389,-1.395 l 0,4.164 C 2.868,-0.362 1.467,0 0,0"/></g><g style="fill:#5e5e60;fill-opacity:1" transform="matrix(0.84436852,0,0,0.84349674,386.62664,449.9937)" id="g4332"><path inkscape:connector-curvature="0" id="path4334" style="fill:#5e5e60;fill-opacity:1;fill-rule:nonzero;stroke:none" d="m 0,0 c -0.371,2.242 -0.965,3.973 -1.786,5.189 -1.242,1.818 -3.143,2.73 -5.708,2.73 -2.869,0 -4.903,-1.177 -6.108,-3.528 -1.188,-2.339 -1.784,-6.326 -1.784,-11.96 0,-6.318 0.601,-10.715 1.804,-13.189 1.216,-2.531 3.311,-3.795 6.285,-3.795 2.828,0 4.844,1.176 6.047,3.529 1.203,2.35 1.805,6.323 1.805,11.918 C 0.555,-5.115 0.369,-2.079 0,0 m -4.539,-18.276 c -0.517,-1.586 -1.469,-2.378 -2.857,-2.378 -1.414,0 -2.378,0.846 -2.895,2.541 -0.502,1.792 -0.752,5.006 -0.752,9.641 0,5.033 0.236,8.382 0.714,10.052 0.487,1.653 1.467,2.482 2.933,2.482 1.468,0 2.439,-0.904 2.914,-2.708 0.477,-1.792 0.714,-5.429 0.714,-10.912 0,-4.239 -0.256,-7.147 -0.771,-8.718"/></g><g style="fill:#3385b6;fill-opacity:1;stroke-width:0.09479431;stroke-miterlimit:4;stroke-dasharray:none" transform="matrix(0.84436852,0,0,0.84349674,327.65908,400.35166)" id="g4336"><path inkscape:connector-curvature="0" id="path4338" style="fill:#3385b6;fill-opacity:1;fill-rule:nonzero;stroke:none" d="m 0,0 c -0.377,0.232 -0.686,0.536 -0.926,0.913 -0.24,0.375 -0.416,0.811 -0.523,1.309 -0.107,0.497 -0.162,1.018 -0.162,1.566 0,0.689 0.118,1.521 0.35,2.493 0.232,0.975 0.563,1.912 0.991,2.814 0.429,0.902 0.945,1.669 1.543,2.298 0.599,0.628 1.255,0.942 1.972,0.942 0.482,0 0.853,-0.172 1.111,-0.518 0.259,-0.347 0.39,-0.783 0.39,-1.312 C 4.746,9.997 4.607,9.433 4.33,8.813 4.053,8.193 3.704,7.593 3.284,7.014 2.864,6.433 2.413,5.919 1.93,5.472 1.448,5.025 1.001,4.719 0.59,4.557 0.499,4.09 0.455,3.661 0.455,3.276 0.455,2.585 0.59,2.04 0.857,1.644 1.124,1.247 1.571,1.05 2.197,1.05 c 0.574,0 1.109,0.126 1.611,0.38 0.499,0.253 0.964,0.579 1.393,0.973 0.429,0.395 0.823,0.846 1.181,1.354 0.356,0.506 0.671,1.013 0.937,1.52 0.092,0.162 0.198,0.335 0.322,0.518 0.126,0.184 0.288,0.274 0.484,0.274 0.089,0 0.174,-0.031 0.253,-0.09 C 8.459,5.917 8.5,5.834 8.5,5.734 8.5,5.531 8.483,5.369 8.446,5.247 8.41,5.126 8.349,4.983 8.258,4.821 7.918,4.132 7.504,3.473 7.012,2.844 6.52,2.217 5.98,1.666 5.39,1.192 4.799,0.721 4.164,0.344 3.485,0.066 2.806,-0.21 2.1,-0.349 1.366,-0.349 0.831,-0.349 0.374,-0.232 0,0 M 2.307,10.278 C 2.037,9.839 1.786,9.329 1.556,8.749 1.321,8.166 1.124,7.585 0.965,7.003 0.804,6.423 0.705,5.999 0.669,5.734 c 0.285,0.204 0.6,0.474 0.939,0.81 0.34,0.338 0.653,0.716 0.939,1.133 0.285,0.42 0.525,0.846 0.724,1.285 0.197,0.437 0.295,0.863 0.295,1.269 0,0.164 -0.032,0.322 -0.093,0.476 -0.063,0.152 -0.184,0.23 -0.364,0.23 -0.266,0 -0.536,-0.22 -0.802,-0.659 M 8.796,-0.821 c -0.091,0.152 -0.135,0.33 -0.135,0.532 0,1.501 0.139,3.041 0.415,4.625 0.278,1.581 0.551,3.102 0.82,4.561 0.088,0.467 0.169,0.944 0.24,1.431 0.07,0.486 0.151,0.962 0.24,1.431 0.073,0.363 0.265,0.698 0.578,1.003 0.312,0.304 0.638,0.456 0.979,0.456 0.304,0 0.514,-0.092 0.63,-0.274 0.115,-0.182 0.174,-0.436 0.174,-0.76 0,-0.528 -0.075,-1.08 -0.227,-1.66 C 12.357,9.947 12.2,9.416 12.039,8.929 11.844,8.36 11.691,7.782 11.584,7.194 11.478,6.605 11.389,6.019 11.315,5.431 c 0.198,0.324 0.488,0.789 0.873,1.398 0.383,0.609 0.8,1.207 1.248,1.794 0.445,0.589 0.897,1.106 1.352,1.552 0.457,0.446 0.855,0.67 1.194,0.67 0.269,0 0.482,-0.113 0.644,-0.335 0.16,-0.224 0.282,-0.497 0.362,-0.822 0.08,-0.324 0.13,-0.648 0.148,-0.973 0.017,-0.324 0.026,-0.598 0.026,-0.821 0,-0.709 -0.018,-1.419 -0.054,-2.129 -0.035,-0.711 -0.053,-1.42 -0.053,-2.13 0,-0.182 0.006,-0.38 0.013,-0.594 0.008,-0.212 0.04,-0.41 0.094,-0.592 0.054,-0.183 0.139,-0.335 0.254,-0.456 0.117,-0.123 0.282,-0.183 0.497,-0.183 0.358,0 0.719,0.157 1.086,0.471 0.365,0.315 0.72,0.69 1.06,1.126 0.339,0.436 0.644,0.887 0.911,1.354 0.268,0.466 0.474,0.861 0.617,1.185 0.07,0.143 0.162,0.305 0.268,0.487 0.107,0.183 0.242,0.275 0.401,0.275 0.144,0 0.257,-0.065 0.338,-0.199 0.08,-0.131 0.12,-0.268 0.12,-0.41 0,-0.08 -0.024,-0.182 -0.068,-0.304 C 22.602,5.672 22.561,5.571 22.525,5.49 22.33,5.023 22.047,4.491 21.681,3.894 21.314,3.295 20.894,2.732 20.421,2.205 19.946,1.678 19.445,1.231 18.92,0.867 18.392,0.502 17.878,0.32 17.377,0.32 c -0.466,0 -0.828,0.136 -1.086,0.409 -0.26,0.275 -0.457,0.614 -0.591,1.019 -0.133,0.405 -0.214,0.842 -0.24,1.309 -0.027,0.466 -0.041,0.893 -0.041,1.279 0,0.587 0.018,1.165 0.054,1.733 0.037,0.568 0.053,1.145 0.053,1.735 0,0.079 -0.014,0.201 -0.04,0.363 C 15.46,8.33 15.392,8.411 15.285,8.411 15.195,8.411 15.089,8.35 14.963,8.229 14.838,8.106 14.738,8.005 14.668,7.925 14.221,7.438 13.801,6.87 13.408,6.22 13.015,5.571 12.656,4.954 12.335,4.364 11.942,3.654 11.584,2.931 11.263,2.19 10.941,1.45 10.627,0.694 10.324,-0.077 10.217,-0.32 10.069,-0.543 9.882,-0.746 9.693,-0.948 9.474,-1.05 9.225,-1.05 c -0.198,0 -0.342,0.076 -0.429,0.229"/></g><g style="fill:#5e5e60;fill-opacity:1" transform="matrix(0.84436852,0,0,0.84349674,443.75363,386.37775)" id="g4340"><path inkscape:connector-curvature="0" id="path4342" style="fill:#5e5e60;fill-opacity:1;fill-rule:nonzero;stroke:none" d="m 0,0 10.963,0 0,3.608 -6.839,0 0,10.811 6.066,0 0,3.61 -6.066,0 0,10.03 6.839,0 0,3.61 L 0,31.669 0,0 z"/></g><g style="fill:#5e5e60;fill-opacity:1" transform="matrix(0.84436852,0,0,0.84349674,395.58901,386.37775)" id="g4344"><path inkscape:connector-curvature="0" id="path4346" style="fill:#5e5e60;fill-opacity:1;fill-rule:nonzero;stroke:none" d="m 0,0 10.964,0 0,3.608 -6.84,0 0,10.811 6.066,0 0,3.61 -6.066,0 0,10.03 6.84,0 0,3.61 L 0,31.669 0,0 z"/></g><g style="fill:#5e5e60;fill-opacity:1" transform="matrix(0.84436852,0,0,0.84349674,382.27581,413.43671)" id="g4348"><path inkscape:connector-curvature="0" id="path4350" style="fill:#5e5e60;fill-opacity:1;fill-rule:nonzero;stroke:none" d="m 0,0 c -2.474,0 -4.445,-0.73 -5.915,-2.194 -1.454,-1.45 -2.182,-3.412 -2.182,-5.888 0,-1.833 0.372,-3.351 1.115,-4.553 0.387,-0.615 0.982,-1.333 1.786,-2.154 0.804,-0.821 1.817,-1.764 3.039,-2.831 0.788,-0.697 1.446,-1.33 1.971,-1.898 0.526,-0.567 0.935,-1.069 1.229,-1.506 0.573,-0.917 0.859,-1.951 0.859,-3.098 0,-1.326 -0.373,-2.376 -1.114,-3.149 -0.741,-0.773 -1.77,-1.16 -3.084,-1.16 -1.407,0 -2.968,0.555 -4.686,1.662 l 0,-4.226 c 1.454,-0.996 3.209,-1.495 5.265,-1.495 2.444,0 4.445,0.771 6.008,2.316 1.562,1.588 2.341,3.604 2.341,6.052 0,1.806 -0.354,3.329 -1.065,4.574 -0.713,1.286 -2.049,2.811 -4.013,4.574 -1.068,0.945 -1.937,1.751 -2.61,2.42 -0.673,0.67 -1.156,1.218 -1.449,1.642 -0.573,0.793 -0.858,1.744 -0.858,2.851 0,1.258 0.4,2.262 1.206,3.015 0.803,0.793 1.84,1.191 3.107,1.191 1.176,0 2.496,-0.466 3.966,-1.396 l 0,4.164 C 3.355,-0.362 1.716,0 0,0"/></g><path inkscape:connector-curvature="0" id="path4352" style="fill:#5e5e60;fill-opacity:1;fill-rule:nonzero;stroke:none" d="m 412.56003,386.37775 3.48217,0 0,26.7127 -3.48217,0 0,-26.7127 z"/><g style="fill:#5e5e60;fill-opacity:1" transform="matrix(0.84436852,0,0,0.84349674,423.75556,386.37775)" id="g4354"><path inkscape:connector-curvature="0" id="path4356" style="fill:#5e5e60;fill-opacity:1;fill-rule:nonzero;stroke:none" d="M 0,0 4.168,0 3.946,13.803 c 0,0.398 -0.004,0.752 -0.01,1.067 -0.008,0.316 -0.019,0.582 -0.035,0.8 L 3.662,19.589 3.44,22.808 C 3.427,22.987 3.407,23.2 3.38,23.455 3.353,23.706 3.319,24.013 3.278,24.366 3.36,24.013 3.43,23.697 3.491,23.424 c 0.06,-0.274 0.105,-0.506 0.131,-0.697 0.322,-1.533 0.677,-2.996 1.062,-4.391 0.382,-1.395 0.79,-2.755 1.22,-4.08 L 10.611,0 l 3.938,0 0,31.669 -4.209,0 0,-11.815 c 0,-1.75 0.081,-3.616 0.243,-5.598 0.162,-1.984 0.41,-4.198 0.748,-6.647 -0.93,4.047 -2.003,7.856 -3.217,11.425 L 3.925,31.669 0,31.669 0,0 z"/></g><path sodipodi:nodetypes="csssc" inkscape:connector-curvature="0" id="path4606" d="m 298.32923,384.75305 c 0,0 -20.19255,6.95753 -18.8949,24.67046 0,0 1.78987,15.69917 14.988,16.99944 8.75739,0.86277 12.22185,-1.41483 16.38485,-5.39803 8.00156,-7.65596 -1.17232,-30.33136 17.16914,-35.66279" style="fill:none;stroke:#3385b6;stroke-width:13.60000038;stroke-linecap:butt;stroke-linejoin:miter;stroke-miterlimit:4;stroke-opacity:1;stroke-dasharray:none"/></g><text xml:space="preserve" style="font-size:49px;font-style:normal;font-weight:normal;line-height:125%;letter-spacing:0px;word-spacing:0px;fill:#000000;fill-opacity:1;stroke:none;font-family:Sans" x="424.65564" y="309.39612" id="text3936" sodipodi:linespacing="125%" transform="matrix(0.8,0,0,-0.8,0,651.973)"><tspan sodipodi:role="line" id="tspan3938" x="424.65564" y="309.39612"/></text>

</g></svg>