<svg xmlns="http://www.w3.org/2000/svg" viewBox="0 0 500 500"><title>codeurs-en-seine-icon</title><path d="M350.88,456.45c28.22-3.46,51.15-17.13,68.21-39.1,22.51-29,33.42-62.29,29.94-99.4-2.27-24.22-11.58-45.51-28.7-63-13.39-13.68-29.72-22.83-47.45-29.77-3.77-1.48-4.76-.52-5.85,2.87q-7.69,23.84-15.81,47.54c-1.19,3.43-.6,4.66,2.81,6.13,12.6,5.42,22.93,13.47,28.9,26.37,7.23,15.63,5.06,31.25-.06,46.68-4,12.11-9.92,23.41-20.15,31.6-13.28,10.63-28.53,12.93-44.78,9.13-4.12-1-6.06-.6-7.46,4q-7.12,23.19-15.26,46.05c-1.6,4.45-.41,5.5,3.56,6.61,7.72,2.16,11,3.93,23.39,5.38S350.88,456.45,350.88,456.45Z" style="fill:#375d9d"/><path d="M157.78,211.35c36.1-1.34,64.36,13.94,85.79,42.15,9.44,12.43,12.88,27.55,15.2,42.82,3.1,20.33,3.42,41.05,8.45,61.11,3.74,14.91,11.58,26.4,27.09,30.95,3.25,1,3.09,2.45,2.25,4.93-5.34,15.82-10.73,31.64-15.83,47.54-1.17,3.64-2.71,3.89-6,2.75-35.35-12.35-55.67-37.85-64.62-73.41-5-19.71-5.68-40-8.53-60-.67-4.7-1.56-9.36-2.33-14-2.28-13.8-20.94-26.51-35.56-26.71a104.42,104.42,0,0,0-19.49,1.06c-14.05,2.46-22.19,11.89-28.13,24-15.92,32.4-3,59.1,21.31,78.68A126.57,126.57,0,0,0,167.8,391c2.83,1.2,3.63,2.27,2.38,5.42-6.24,15.68-12.27,31.45-18.19,47.25-1.06,2.82-2.21,3.35-4.93,2.17-34.1-14.73-63.5-35.38-81.87-68.54C48,346.21,45.62,313.59,58.7,280.18c6.36-16.25,14.88-31,27.62-43.22,16.78-16.07,37-23.92,59.84-25.58C150,211.11,153.91,211.35,157.78,211.35Z" style="fill:#375d9d"/><path d="M254.37,165.31c3.56-35,14.36-70,44-96.51,23-20.49,50-29.29,80.84-26.12a190.89,190.89,0,0,1,29.48,5.63c2.52.67,3.43,1.34,2.4,4.26q-8.75,24.87-17,49.91c-1.12,3.41-2.88,2.56-5.18,2-14.35-3.43-28.38-3.17-41.3,4.83-13.91,8.62-21.51,22-26.35,37.07-4.73,14.71-6.3,29.65.07,44.38,5.55,12.82,15.72,21,28.12,26.53,3.57,1.6,4.62,2.94,3.18,6.92-5.73,15.86-11.1,31.86-16.5,47.85-.77,2.29-1.17,3.72-4.22,2.47-20.44-8.38-39.14-19.22-53.44-36.57C261.9,217.79,255.26,194.2,254.37,165.31Z" style="fill:#375d9d"/></svg>