<svg xmlns="http://www.w3.org/2000/svg" viewBox="0 0 500 267.15"><title>codeurs-en-seine-logo</title><path d="M186.3,244.51c15.08-1.85,27.33-9.15,36.44-20.89,12-15.49,17.86-33.28,16-53.11a54,54,0,0,0-15.34-33.66c-7.16-7.31-15.88-12.2-25.35-15.9-2-.79-2.55-.28-3.13,1.53q-4.11,12.74-8.45,25.4c-.63,1.83-.32,2.49,1.5,3.27,6.73,2.9,12.25,7.2,15.44,14.09,3.86,8.35,2.7,16.7,0,24.94-2.15,6.47-5.3,12.51-10.76,16.88-7.1,5.68-15.24,6.91-23.92,4.88-2.2-.52-3.24-.32-4,2.11q-3.8,12.39-8.15,24.6c-.85,2.38-.22,2.94,1.9,3.53,4.13,1.15,5.86,2.1,12.5,2.88S186.3,244.51,186.3,244.51Z" style="fill:#375d9d"/><path d="M477.69,110.63a22.29,22.29,0,0,1-2.34,5.31,13.51,13.51,0,0,1-17.85,5.41c-1.7-.81-2.66-1.82-2.43-3.88a50.88,50.88,0,0,0,0-5.54c2.37,1.09,4.25,2.55,6.66,2.81,4,.44,6.75-1.39,7.67-5.32,1.17-5-.61-9-3.8-12.68s-6.79-7-9.56-11.11c-3.91-5.74-3.68-15.88.66-21.25,4.64-5.74,12-5.2,17.25-2.81a1.5,1.5,0,0,1,.88,1.59c0,2.12,0,4.25,0,6.5-1.94-.43-3.16-1.74-4.85-2.11-3.9-.84-7.55,1.2-8.44,5.07-.76,3.33-.49,6.58,1.78,9.35,1.84,2.25,3.7,4.51,5.72,6.61a37.37,37.37,0,0,1,8.62,13.56C478.4,104.26,478.22,107.59,477.69,110.63Z" style="fill:#375d9d"/><path d="M83.14,113.57c19.29-.72,34.39,7.45,45.84,22.52,5,6.64,6.88,14.72,8.12,22.88,1.66,10.86,1.83,21.93,4.51,32.65,2,8,6.19,14.11,14.47,16.53,1.73.51,1.65,1.31,1.2,2.63-2.85,8.45-5.73,16.9-8.46,25.4-.62,1.95-1.45,2.08-3.19,1.47-18.89-6.6-29.74-20.22-34.53-39.22-2.65-10.53-3-21.38-4.56-32.07-.36-2.51-.83-5-1.25-7.5-1.22-7.37-11.19-14.16-19-14.27a55.79,55.79,0,0,0-10.41.57c-7.51,1.31-11.85,6.35-15,12.81-8.51,17.31-1.59,31.57,11.39,42a67.62,67.62,0,0,0,16.24,9.55c1.51.64,1.94,1.22,1.27,2.89-3.33,8.38-6.55,16.8-9.72,25.25-.57,1.51-1.18,1.79-2.63,1.16-18.22-7.87-33.92-18.9-43.74-36.62-9.21-16.61-10.45-34-3.46-51.89,3.4-8.68,8-16.57,14.76-23.09,9-8.58,19.76-12.78,32-13.67C79,113.44,81.07,113.57,83.14,113.57Z" style="fill:#375d9d"/><path d="M134.74,89c1.9-18.69,7.67-37.42,23.53-51.56,12.28-10.95,26.71-15.65,43.19-14a102,102,0,0,1,15.75,3c1.35.36,1.83.72,1.28,2.27Q213.83,42,209.42,55.4c-.6,1.82-1.54,1.37-2.77,1.07-7.66-1.83-15.16-1.7-22.07,2.58-7.43,4.6-11.49,11.76-14.08,19.8-2.53,7.86-3.37,15.84,0,23.71,3,6.85,8.4,11.21,15,14.18,1.91.85,2.47,1.57,1.7,3.7-3.06,8.48-5.93,17-8.81,25.56-.41,1.22-.63,2-2.26,1.32-10.92-4.48-20.91-10.27-28.55-19.54C138.77,117,135.22,104.4,134.74,89Z" style="fill:#375d9d"/><path d="M379.88,181.3c.95,12.38.5,24.81,1.11,37.2.11,2.2-.46,2.9-2.74,2.84-5.45-.14-5.45,0-5.45-5.51,0-17.67,0-35.35-.05-53,0-2.33.6-3.07,3-3,4.7.17,4.73,0,6.23,4.61,3.81,11.58,7.88,23.08,11.1,34.85.72.73.64,1.73.91,2.62.2.69.58,1.36.48,1.63.15-.54-.49-1.42-.63-2.38-.45-1.39.39-2.84-.23-4.22-.87-11.36-.57-22.75-.7-34.13,0-2.29.48-3.07,2.9-3,5.22.18,5.23,0,5.23,5.16,0,17.69,0,35.38.05,53.06,0,2.46-.44,3.47-3.18,3.31-4.46-.25-4.53,0-5.88-4.36-3.9-12.45-8.64-24.63-11.53-37.39a2.91,2.91,0,0,1-.71-1.48C380.18,179,379.32,180.19,379.88,181.3Z" style="fill:#375d9d"/><path d="M403.13,86.11c0,7.63.18,15.26-.06,22.87-.16,5-.9,9.95-6.29,12.28a17.44,17.44,0,0,1-14,.12c-3.94-1.63-5.62-5-6.22-9.09a57.69,57.69,0,0,1-.58-8.44c0-13.46.06-26.93,0-40.39,0-2.26.64-2.83,2.82-2.77,5.1.13,5.1,0,5.1,5q0,20.33.07,40.67a17.35,17.35,0,0,0,.51,4.47c.82,3.08,2.29,4.28,5.38,4.22,2.78-.05,4.77-1.19,5.1-4.16a69.61,69.61,0,0,0,.44-7.31c0-13.27.07-26.55,0-39.82,0-2.25.43-3.14,2.89-3.06,5,.16,5,0,5,5.09q0,10.17,0,20.33Z" style="fill:#375d9d"/><path d="M264.35,211.33c1.55.69,3,1.48,4.6,2,4.56,1.6,8.67.71,10.81-2.22s1.92-8.47-.63-11.93A52.36,52.36,0,0,0,272,192a62.5,62.5,0,0,1-7.24-7.49c-5.77-7.39-2.82-20.23,5.64-23.89,5.21-2.25,10.46-1.64,15.65.31,1.56.58,1.06,1.81,1.09,2.84,0,1.59.58,3.79-.23,4.65-1.23,1.3-2.71-.75-4.13-1.21-4.1-1.31-8.18-.22-10.35,2.95a9,9,0,0,0,1.06,11c3.46,3.71,7.19,7.16,10.81,10.73,4.15,4.09,6.46,9,6.06,14.89-.73,10.66-9.22,17.12-19.75,15C264.24,220.46,263.47,219.21,264.35,211.33Z" style="fill:#375d9d"/><path d="M308.21,190.5c0-9.31.08-18.62-.06-27.93,0-2.32.71-2.8,2.85-2.75,5.36.14,10.72.12,16.08,0,1.81,0,2.5.44,2.45,2.34-.16,5.87.54,4.6-4.77,4.8-2.78.11-6.37-1.21-8.12.56s-.39,5.19-.45,7.89c-.07,3,.06,6,0,9-.05,1.5.46,2,1.92,1.9,2.63-.1,5.27.06,7.9-.06,1.62-.08,2,.48,2.06,2.07.05,4.92.12,4.92-4.86,4.92-7,0-7,0-7,7,0,3.86.08,7.71,0,11.56-.05,1.79.41,2.52,2.33,2.41,2.81-.16,5.64.05,8.46-.07,1.88-.08,2.69.38,2.62,2.47-.19,5.72.5,4.56-4.61,4.64-4.7.07-9.41-.09-14.1.06-2.09.07-2.7-.47-2.67-2.63C308.28,209.31,308.21,199.9,308.21,190.5Z" style="fill:#375d9d"/><path d="M418.82,190.64c0-9.41,0-18.82,0-28.24,0-1.91.44-2.62,2.48-2.57,5.46.14,10.92.12,16.38,0,1.87,0,2.39.55,2.37,2.4,0,4.73.06,4.73-4.81,4.73-2.26,0-4.52,0-6.78,0-1.2,0-1.65.39-1.64,1.62,0,5.36.06,10.73,0,16.09,0,1.44.57,1.72,1.84,1.69,2.63-.07,5.27.06,7.9-.05,1.6-.07,2.13.44,2.09,2.06-.14,6.08.58,4.72-4.62,4.94-2.32.1-5.3-1-6.79.51s-.35,4.31-.39,6.56c-.06,3.58.19,7.17-.08,10.72-.21,2.75.86,3.34,3.31,3.15s5.09.07,7.62-.08c1.93-.12,2.36.63,2.35,2.43,0,4.69.05,4.69-4.53,4.69-4.42,0-8.86-.16-13.27.06-2.64.13-3.53-.48-3.46-3.32C418.95,208.9,418.82,199.77,418.82,190.64Z" style="fill:#375d9d"/><path d="M342.68,91.2c0-9.32.05-18.64,0-28,0-1.92.41-2.6,2.46-2.55,5.45.14,10.92.12,16.37,0,1.94,0,2.82.5,2.53,2.51a5.83,5.83,0,0,0,0,1.69c.34,2.19-.46,3-2.75,2.83-2.9-.21-5.83,0-8.75-.08-1.51-.05-1.92.48-1.9,1.94q.11,7.76,0,15.53c0,1.47.45,2,1.93,1.94,2.63-.09,5.27,0,7.9,0,1.35,0,2,.23,2,1.82.2,5.3.27,5.3-5,5.3-6.81,0-6.81,0-6.81,6.88,0,4,.08,7.91,0,11.86-.05,1.76.53,2.28,2.25,2.21,3-.12,6,0,9-.06,1.54,0,2.12.36,2.15,2,.09,4.9.17,4.9-4.61,4.9-4.61,0-9.23-.13-13.83.06-2.29.09-3-.44-3-2.87C342.78,109.83,342.68,100.51,342.68,91.2Z" style="fill:#375d9d"/><path d="M247.94,68.56c-1.08.35-1.7-.22-2.39-.44-4.23-1.33-7.91.05-10.12,3.88-2.53,4.38-2.92,9.3-3.27,14.16a61.77,61.77,0,0,0,1,18,18.45,18.45,0,0,0,2.77,6.74,8.36,8.36,0,0,0,9.64,3.46c2.36-.8,2.57,0,2.36,1.91a2.5,2.5,0,0,0,0,.28c0,5.15-.8,6-6.07,6.14-7.42.23-13.25-3.6-15.64-11.7-4.13-14-4.17-28,1.2-41.76a14.35,14.35,0,0,1,17.71-8.73c2,.63,3.25,1.6,2.84,4A24.36,24.36,0,0,0,247.94,68.56Z" style="fill:#375d9d"/><path d="M355.13,190.86c0,9.21-.06,18.43,0,27.64,0,2.15-.44,2.91-2.75,2.84-5.25-.16-5.25,0-5.25-5.36,0-17.68,0-35.36-.06-53,0-2.4.44-3.26,3-3.14,5,.23,5,.06,5,5.1Q355.13,177.89,355.13,190.86Z" style="fill:#375d9d"/><path d="M174.32,177.34c2.23-2.41,4-5.08,6.16-7.4.84-.88,1.74-2,3.09-1.59s1.49,1.8,1.71,3c.58,3.19.07,6.38,0,9.57,0,1.63-.56,3.77,1.36,4.5s3-1.22,4.06-2.43a26.1,26.1,0,0,0,3.47-5.46c.3-.56.67-1.36,1.42-1.06.9.36.67,1.19.33,1.93a22.09,22.09,0,0,1-6.57,8.68c-3.52,2.69-6.41,1.61-6.94-2.83-.35-2.88-.09-5.82-.16-8.74,0-.7.44-1.7-.36-2.06-1-.46-1.39.7-1.87,1.3a53.18,53.18,0,0,0-6.73,12c-.41.95-.78,1.92-1.27,2.82s-1,1.78-2.15,1.35-.74-1.42-.72-2.22c.11-7.57,2.08-14.87,3.27-22.28a3.84,3.84,0,0,1,.9-1.73,2.32,2.32,0,0,1,2.49-.95c1.19.36,1,1.45,1,2.35-.09,3-1.34,5.65-1.93,8.5C174.69,175.52,174.5,176.43,174.32,177.34Z" style="fill:#375d9d"/><path d="M393.58,196.94c.72,1.45.45,3,.62,4.55.21.58-.05.7-.56.57l-.58-2.78C393.78,198.63,393.34,197.71,393.58,196.94Z" style="fill:#375d9d"/><path d="M379.88,181.3c-.7-1.32-.47-2.73-.42-4.4a3.82,3.82,0,0,1,1,2.7C379.8,180,380.16,180.76,379.88,181.3Z" style="fill:#375d9d"/><path d="M393.63,202.06l.56-.57c.67.92.42,1.94.1,3Z" style="fill:#375d9d"/><path d="M286.7,71.3c-.92-3.53-2.31-6.77-5.41-9-8.33-5.91-19.16-1.48-21.64,8.88-2.33,9.72-2,19.59-1.42,29.45a44,44,0,0,0,2.59,13.49c2.14,5.53,6.53,8.49,12.66,8.5s10.15-2.8,12.34-8.42c2.79-7.18,2.66-14.72,2.77-20.3C288.53,85.06,288.48,78.11,286.7,71.3Zm-7.33,36.91a15.35,15.35,0,0,1-1.19,3.74,5.09,5.09,0,0,1-4.88,3.2,5.23,5.23,0,0,1-4.9-3.2c-1.43-2.84-1.7-6-1.81-9-.33-9.11-.63-18.23.39-27.32A16.64,16.64,0,0,1,268.1,71a5.28,5.28,0,0,1,5.25-3.54A5.15,5.15,0,0,1,278.29,71,30,30,0,0,1,280,81.2c.11,3.57,0,7.14,0,10.71C280,97.35,280.34,102.82,279.36,108.21Z" style="fill:#375d9d"/><path d="M328.49,75.3c-1.61-8.1-6-14.83-16.75-14.53-2.63.07-5.27.1-7.9-.07-2-.13-2.55.51-2.53,2.5.1,9.31,0,18.62,0,27.93,0,9.5,0,19,0,28.5,0,1.8.41,2.51,2.32,2.38,2.72-.19,5.46,0,8.18-.17,9.5-.55,15-4.92,16.63-13.48A86.53,86.53,0,0,0,328.49,75.3Zm-8,30.58c-1.1,5.55-4.27,8.43-9.14,8.75-1.6.1-2.1-.3-2.08-1.94.08-7.23,0-14.47,0-21.7,0-7,.08-14.09,0-21.13,0-2,.7-2.35,2.44-2.13a8.88,8.88,0,0,1,7.83,6.32c1.79,5.14,1.85,10.51,2,15.85A69.15,69.15,0,0,1,320.52,105.89Z" style="fill:#375d9d"/><path d="M443.28,119.51c-3.16-8.34-6.14-16.75-9.26-25.11-.54-1.44-.66-2.28,1.06-3,2.67-1.12,4.17-3.48,5.05-6.14a26.18,26.18,0,0,0,.15-16.38c-1.61-5.15-5.2-7.75-10.72-8-3.19-.15-6.4,0-9.59-.17-2.19-.14-2.84.51-2.83,2.77.1,18,.05,36,.05,53.93,0,4.57,0,4.36,4.56,4.65,2.94.19,3.54-.77,3.47-3.54-.19-8.41-.07-16.83-.07-25.24l.43-.07q4.3,11.86,8.6,23.72c1.85,5.12,1.85,5,7.37,5.1C443.75,122,444,121.52,443.28,119.51ZM426.19,87.84c-1.22-.09-1-.84-1-1.54,0-5.72,0-11.43,0-17.15,0-1.48.64-1.65,1.87-1.6,3.18.13,5.31,1.74,6,4.89.38,1.73.48,3.52.73,5.42-.23,1.66-.33,3.45-.73,5.17A6.66,6.66,0,0,1,426.19,87.84Z" style="fill:#375d9d"/><path d="M168.25,177.68a.85.85,0,0,0-1.2.37c-.64.93-1.22,1.89-1.83,2.84a13.49,13.49,0,0,1-6.13,5.62c-1.83.74-3.91,1.22-5.31-.9a4.74,4.74,0,0,1,1.12-6.19,19.13,19.13,0,0,0,6.14-8.6c.63-1.84.79-3.9-1.15-5.06-1.77-1.05-3.44-.13-4.86,1.12a9.78,9.78,0,0,0-1.33,1.45,23.39,23.39,0,0,0-4.53,14c-.07,4.8,2.23,7.43,5.85,7.46,5,0,12.81-6.23,13.57-10.83C168.68,178.45,168.71,178,168.25,177.68ZM156.91,169c.33-.56.85-1.09,1.62-.73s.63,1.11.48,1.72a12.3,12.3,0,0,1-5.1,7.45A19.58,19.58,0,0,1,156.91,169Z" style="fill:#375d9d"/></svg>